<?xml version="1.0" standalone="no"?>
<!DOCTYPE svg PUBLIC "-//W3C//DTD SVG 20010904//EN"
 "http://www.w3.org/TR/2001/REC-SVG-20010904/DTD/svg10.dtd">
<svg version="1.0" xmlns="http://www.w3.org/2000/svg"
 width="268.000000pt" height="200.000000pt" viewBox="0 0 268.000000 200.000000"
 preserveAspectRatio="xMidYMid meet">
<metadata>
Created by potrace 1.15, written by Peter Selinger 2001-2017
</metadata>
<g transform="translate(0.000000,200.000000) scale(0.100000,-0.100000)"
fill="#000000" stroke="none">
<path d="M85 1265 c-33 -8 -66 -14 -72 -14 -10 -1 -13 -73 -13 -327 l0 -327
31 7 c17 3 67 6 110 6 l79 0 0 99 c0 107 2 111 59 111 44 0 119 26 163 56 55
39 82 94 82 169 -1 154 -105 236 -298 234 -45 0 -108 -7 -141 -14z m255 -15
c60 -17 127 -66 150 -109 45 -89 17 -204 -62 -256 -42 -28 -134 -55 -185 -55
l-32 0 -3 -102 -3 -103 -93 -3 -92 -3 0 305 0 305 38 10 c84 22 224 27 282 11z"/>
<path d="M1648 1184 l-3 -86 -26 21 c-15 11 -29 17 -33 14 -3 -3 -6 1 -6 10 0
22 -66 74 -119 92 -24 8 -77 15 -116 15 -137 0 -228 -73 -281 -225 -5 -15 -14
5 -33 73 -23 81 -28 92 -48 92 -13 0 -23 -3 -23 -7 0 -5 36 -129 80 -278 43
-148 77 -271 76 -272 -2 -2 -42 -8 -90 -15 -81 -10 -86 -12 -86 -34 0 -29 11
-30 141 -12 102 13 100 11 70 107 l-19 60 43 -29 c24 -17 48 -30 54 -30 6 0
11 -4 11 -9 0 -5 44 -8 98 -7 78 1 105 6 138 23 55 29 119 103 138 160 20 58
20 174 1 228 -20 55 -18 56 10 10 22 -36 25 -51 25 -148 0 -122 -10 -154 -64
-215 -55 -60 -122 -85 -215 -80 -42 3 -85 8 -95 13 -14 6 -17 5 -11 -4 4 -7
31 -24 59 -37 91 -42 201 -30 284 32 l32 25 0 -27 c0 -25 2 -26 43 -20 23 3
105 11 182 16 77 6 145 13 152 15 7 2 14 37 19 85 6 70 9 79 22 68 12 -10 13
-28 8 -92 -4 -44 -8 -82 -10 -83 -2 -2 -75 -9 -162 -16 -153 -12 -159 -13
-162 -34 -3 -22 0 -23 60 -22 35 1 122 6 193 13 l130 11 3 40 c1 22 5 50 7 63
6 23 6 23 38 5 18 -10 34 -21 37 -24 3 -4 48 -6 100 -5 76 1 103 6 136 23 55
29 119 103 138 160 20 57 20 174 1 228 -21 59 -11 54 21 -12 73 -149 8 -340
-138 -403 -42 -18 -65 -21 -127 -18 -42 3 -85 8 -95 13 -14 6 -17 5 -11 -4 4
-7 31 -24 59 -37 134 -62 297 -3 366 133 33 64 39 180 15 254 -18 54 -97 145
-116 133 -5 -3 -9 2 -9 10 0 22 -67 73 -119 91 -72 24 -177 20 -239 -11 -102
-51 -153 -136 -160 -266 l-4 -88 -30 0 c-27 0 -29 2 -24 33 3 17 8 73 11 122
3 50 8 109 12 133 5 41 5 42 -25 42 -35 0 -37 -6 -47 -165 -9 -139 -16 -175
-31 -175 -8 0 -14 8 -14 18 1 44 30 349 36 370 l6 22 -130 0 -131 0 -3 -86z
m238 49 c-2 -10 -10 -90 -16 -178 -6 -88 -13 -170 -16 -182 -4 -23 -2 -23 86
-23 l91 0 -6 -82 c-5 -52 -12 -87 -21 -94 -8 -6 -65 -14 -126 -18 -62 -4 -137
-10 -165 -13 l-53 -6 0 125 c0 69 3 207 7 306 l6 182 109 0 c99 0 109 -2 104
-17z m-408 -29 c120 -59 170 -196 126 -344 -30 -101 -149 -190 -254 -190 -46
0 -124 28 -168 61 -63 47 -94 106 -100 194 -8 126 45 227 147 280 68 35 177
35 249 -1z m960 0 c120 -59 170 -196 126 -344 -30 -101 -149 -190 -254 -190
-46 0 -124 28 -168 61 -63 47 -94 106 -100 194 -8 126 45 227 147 280 68 35
177 35 249 -1z"/>
<path d="M1293 1035 c-52 -37 -50 -132 4 -175 36 -28 67 -25 105 9 29 26 33
36 33 79 0 40 -5 56 -24 76 -28 30 -83 35 -118 11z"/>
<path d="M2253 1035 c-52 -37 -50 -132 4 -175 36 -28 67 -25 105 9 29 26 33
36 33 79 0 40 -5 56 -24 76 -28 30 -83 35 -118 11z"/>
<path d="M675 1253 c-16 -3 -25 -20 -39 -71 -11 -37 -23 -78 -28 -91 l-9 -25
-17 26 c-10 15 -30 36 -45 48 l-28 22 22 -41 c82 -158 -18 -303 -226 -327
l-55 -7 0 -98 0 -98 -77 -3 c-72 -3 -78 -5 -81 -25 -3 -23 -2 -23 107 -23
l110 0 3 102 3 103 58 7 c32 4 78 16 103 27 51 23 49 31 18 -71 -10 -32 -16
-60 -13 -62 2 -2 58 -6 124 -7 l120 -4 9 43 9 42 48 0 c27 0 49 -4 49 -10 0
-5 -15 -10 -34 -10 -33 0 -35 -2 -42 -45 -3 -25 -9 -47 -13 -49 -3 -2 -40 0
-81 4 -65 8 -77 6 -88 -8 -17 -23 0 -28 125 -37 l102 -7 6 28 c4 16 11 40 15
54 l9 25 7 -23 c5 -19 12 -23 33 -18 14 3 67 10 116 17 50 6 91 13 93 14 2 2
-33 128 -77 281 -45 153 -81 288 -81 301 0 23 -1 23 -117 22 -65 -1 -127 -4
-138 -6z m235 -27 c24 -64 160 -548 156 -555 -3 -5 -38 -12 -78 -15 -40 -4
-83 -10 -95 -13 -19 -4 -24 1 -36 44 l-14 48 -56 3 -55 3 -7 -38 c-10 -64 -10
-63 -120 -52 -55 6 -100 11 -101 12 -3 3 154 529 165 554 9 21 18 23 113 26
57 1 106 4 111 5 4 1 12 -9 17 -22z"/>
</g>
</svg>
